<?xml version="1.0" encoding="UTF-8" standalone="no"?>
<!DOCTYPE svg PUBLIC "-//W3C//DTD SVG 1.1//EN" "http://www.w3.org/Graphics/SVG/1.1/DTD/svg11.dtd">
<svg version="1.1" xmlns="http://www.w3.org/2000/svg" xmlns:xlink="http://www.w3.org/1999/xlink" preserveAspectRatio="xMidYMid meet" viewBox="0 0 640 640" width="640" height="640"><defs><path d="M206.11 327.17C220.07 315.66 232.85 302.81 244.27 288.79C250.08 281.67 253.71 277.21 260.37 269.05C267.33 260.51 280.1 259.75 288.02 267.42C291.01 270.32 295 272.44 299.99 273.79C306.98 275.68 319.46 253.17 329.88 253.17C340.29 253.17 346.44 273.79 358.93 273.79C363.73 273.79 368.4 270.38 372.95 263.55C376.36 258.43 383.77 258.13 387.58 262.96C393.35 270.28 397.28 275.25 401.63 280.77C411.49 293.26 422.61 304.71 434.8 314.94C460.91 336.85 474.22 348.01 488.66 360.13C532.91 397.26 543.83 460.94 514.48 510.69C507.06 523.26 524.11 494.35 513.8 511.82C491.23 550.08 450.12 573.57 405.69 573.57C355.98 573.57 278.86 573.57 229.23 573.57C185.27 573.57 145.32 548.04 126.84 508.16C119.08 491.42 132.43 520.23 126.25 506.89C103.76 458.34 116.87 400.73 158.16 366.69C171.95 355.33 182.5 346.63 206.11 327.17Z" id="m15V4zEkRH"></path><path d="" id="e6yT9ECe2O"></path><path d="M269.82 323.97C266.92 331.08 260.23 340.32 249.76 351.68C249.31 352.17 249.96 352.87 250.48 352.48C262.01 343.7 269.8 334.92 273.85 326.14C278.27 316.57 279.66 308.39 278.01 301.6C277.89 301.12 277.22 301.12 277.11 301.6C275.41 308.76 272.98 316.22 269.82 323.97Z" id="bxdEAvyd"></path><path d="M309.21 324.33C308.02 332.28 302.96 343.73 294.01 358.67C293.75 359.12 294.34 359.58 294.71 359.21C304.49 349.35 310.25 339.56 311.99 329.84C313.86 319.47 313.96 309.69 312.31 300.48C312.28 300.31 312.03 300.32 312.01 300.5C311.39 308.05 310.46 316 309.21 324.33Z" id="b1TeE7a8fY"></path><path d="M383.42 323.11C383.86 332.01 383.47 345.01 382.27 362.11C382.25 362.37 382.64 362.43 382.7 362.17C386.64 345.77 388.36 332.7 387.85 322.97C387.34 313.26 385.46 304.64 382.22 297.13C382.09 296.83 381.64 296.95 381.67 297.27C382.4 305.6 382.99 314.22 383.42 323.11Z" id="k1C9Y5LHec"></path><path d="M345.65 321.26C346.38 328.79 344.79 340.82 340.86 357.34C340.78 357.67 341.25 357.82 341.38 357.51C346.63 345.24 348.96 334.45 348.38 325.13C347.76 315.23 346.43 307.09 344.38 300.69C344.34 300.57 344.16 300.6 344.17 300.73C344.39 306.52 344.88 313.37 345.65 321.26Z" id="e3VLhjkvc"></path><path d="M234.31 493.39C234.31 510.3 220.72 524.03 203.98 524.03C187.24 524.03 173.65 510.3 173.65 493.39C173.65 476.47 187.24 462.74 203.98 462.74C220.72 462.74 234.31 476.47 234.31 493.39Z" id="d33WpGJ4Ty"></path><path d="M472.57 496.35C472.57 513.27 458.98 527 442.24 527C425.5 527 411.91 513.27 411.91 496.35C411.91 479.44 425.5 465.7 442.24 465.7C458.98 465.7 472.57 479.44 472.57 496.35Z" id="l14RGjtYq"></path><path d="M308.69 490.2C303.19 477.84 299.75 470.11 298.38 467.02C296.3 462.35 299.72 457.08 304.83 457.08C307.31 457.08 313.51 457.08 323.43 457.08C332.05 457.08 337.45 457.08 339.6 457.08C345.85 457.08 350.03 463.51 347.49 469.22C346.25 472.02 343.14 479.01 338.16 490.2C331.79 504.53 327.8 513.48 326.21 517.06C325.14 519.47 321.71 519.47 320.64 517.06C319.05 513.48 315.06 504.53 308.69 490.2Z" id="a1ckOF7pxk"></path><path d="M281.06 532.19C288.42 540.43 295.63 544.55 302.69 544.55C309.75 544.55 316.67 540.43 323.44 532.19L323.44 518.84" id="c1CZ73ut22"></path><path d="M369.66 531.69C362.33 540.26 354.78 544.55 347 544.55C344.36 544.55 341.69 544.05 338.99 543.06C333.76 541.14 328.43 537.35 323 531.69" id="d27AAsinR"></path><path d="M277.69 423.2C277.69 438.75 265.19 451.37 249.8 451.37C234.41 451.37 221.92 438.75 221.92 423.2C221.92 407.65 234.41 395.02 249.8 395.02C265.19 395.02 277.69 407.65 277.69 423.2Z" id="aFVV29xBF"></path><path d="M421.86 423.2C421.86 438.75 409.36 451.37 393.97 451.37C378.58 451.37 366.09 438.75 366.09 423.2C366.09 407.65 378.58 395.02 393.97 395.02C409.36 395.02 421.86 407.65 421.86 423.2Z" id="b5PjYNUyG"></path><path d="M407.37 291.2C428.3 250.57 442.09 214.24 448.72 182.18C458.66 134.1 485.21 56.75 501.29 60.9C513.51 64.06 521.22 110.51 508.54 169.52C500.08 208.86 478.06 259.51 442.47 321.47" id="cfT6T18oK"></path><path d="M243.13 295.53C210.6 230.01 192.66 175.59 189.31 132.27C184.29 67.29 186.53 52.91 170.45 57.06C154.37 61.21 134.2 93.29 132.49 155C131.35 196.13 156.53 253.07 208.03 325.81" id="axNqRCcyV"></path><path d="M201.15 229.32C207.66 243.56 218.4 264.94 233.36 293.47C229.5 298.01 225.68 302.15 221.9 305.9C218.12 309.64 214.47 312.99 210.97 315.95C205.11 304.36 193.47 281.47 176.04 247.28C149.89 196 152.23 134.98 162.84 130.02C173.46 125.07 183.08 189.78 201.15 229.32Z" id="b3B55PEapM"></path><path d="M445.4 226.37C438.89 240.61 429.72 262.36 417.88 291.62C420.35 294.47 423.16 297.37 426.31 300.32C429.45 303.27 432.86 306.33 436.52 309.48C448.5 288.97 460.52 265.53 472.57 239.17C490.65 199.62 497.58 131.02 488.94 126.98C480.3 122.95 463.47 186.83 445.4 226.37Z" id="b8mbHZ2rCW"></path><path d="M264.12 395.93L276.33 404.08L263.44 410.7L250.55 417.32L251.23 402.55L251.91 387.79L264.12 395.93Z" id="a15UAc74pB"></path><path d="M412.39 398.34L424.6 406.48L411.71 413.11L398.82 419.73L399.5 404.96L400.18 390.19L412.39 398.34Z" id="b5juv1LO1B"></path></defs><g><g><g><g><use xlink:href="#m15V4zEkRH" opacity="1" fill-opacity="0" stroke="#000000" stroke-width="8" stroke-opacity="1"></use></g></g><g><g><use xlink:href="#e6yT9ECe2O" opacity="1" fill-opacity="0" stroke="#000000" stroke-width="4" stroke-opacity="1"></use></g></g><g><g><use xlink:href="#bxdEAvyd" opacity="1" fill-opacity="0" stroke="#000000" stroke-width="6" stroke-opacity="1"></use></g></g><g><g><use xlink:href="#b1TeE7a8fY" opacity="1" fill-opacity="0" stroke="#000000" stroke-width="6" stroke-opacity="1"></use></g></g><g><g><use xlink:href="#k1C9Y5LHec" opacity="1" fill-opacity="0" stroke="#000000" stroke-width="6" stroke-opacity="1"></use></g></g><g><g><use xlink:href="#e3VLhjkvc" opacity="1" fill-opacity="0" stroke="#000000" stroke-width="6" stroke-opacity="1"></use></g></g><g><use xlink:href="#d33WpGJ4Ty" opacity="1" fill="#db9ecb" fill-opacity="1"></use></g><g><use xlink:href="#l14RGjtYq" opacity="1" fill="#db9ecb" fill-opacity="1"></use></g><g><use xlink:href="#a1ckOF7pxk" opacity="1" fill="#000000" fill-opacity="1"></use><g><use xlink:href="#a1ckOF7pxk" opacity="1" fill-opacity="0" stroke="#000000" stroke-width="3" stroke-opacity="1"></use></g></g><g><g><use xlink:href="#c1CZ73ut22" opacity="1" fill-opacity="0" stroke="#000000" stroke-width="4" stroke-opacity="1"></use></g></g><g><g><use xlink:href="#d27AAsinR" opacity="1" fill-opacity="0" stroke="#000000" stroke-width="4" stroke-opacity="1"></use></g></g><g><use xlink:href="#aFVV29xBF" opacity="1" fill="#000000" fill-opacity="1"></use></g><g><use xlink:href="#b5PjYNUyG" opacity="1" fill="#000000" fill-opacity="1"></use></g><g><g><use xlink:href="#cfT6T18oK" opacity="1" fill-opacity="0" stroke="#000000" stroke-width="7" stroke-opacity="1"></use></g></g><g><g><use xlink:href="#axNqRCcyV" opacity="1" fill-opacity="0" stroke="#000000" stroke-width="7" stroke-opacity="1"></use></g></g><g><use xlink:href="#b3B55PEapM" opacity="1" fill="#edccef" fill-opacity="1"></use><g><use xlink:href="#b3B55PEapM" opacity="1" fill-opacity="0" stroke="#000000" stroke-width="0" stroke-opacity="1"></use></g></g><g><use xlink:href="#b8mbHZ2rCW" opacity="1" fill="#edccef" fill-opacity="1"></use><g><use xlink:href="#b8mbHZ2rCW" opacity="1" fill-opacity="0" stroke="#000000" stroke-width="0" stroke-opacity="1"></use></g></g><g><use xlink:href="#a15UAc74pB" opacity="1" fill="#ffffff" fill-opacity="1"></use></g><g><use xlink:href="#b5juv1LO1B" opacity="1" fill="#ffffff" fill-opacity="1"></use></g></g></g></svg>